<svg width="57" height="57" viewBox="0 0 57 57" fill="none" xmlns="http://www.w3.org/2000/svg">
<path d="M17.9907 40.9687C18.3225 40.635 18.5087 40.1835 18.5087 39.713C18.5087 39.2424 18.3225 38.7909 17.9907 38.4572L9.79697 30.2812H51.7454C52.2178 30.2812 52.6709 30.0936 53.0049 29.7595C53.339 29.4255 53.5267 28.9724 53.5267 28.5C53.5267 28.0276 53.339 27.5745 53.0049 27.2405C52.6709 26.9064 52.2178 26.7187 51.7454 26.7187H9.8504L17.9907 18.5784C18.3285 18.243 18.5192 17.7872 18.5209 17.3111C18.5225 16.8351 18.335 16.3779 17.9996 16.0402C17.6642 15.7024 17.2083 15.5117 16.7323 15.51C16.2563 15.5083 15.7991 15.6958 15.4613 16.0312L4.13259 27.3778C3.83346 27.6783 3.66553 28.0849 3.66553 28.5089C3.66553 28.9329 3.83346 29.3396 4.13259 29.64L15.4613 40.9687C15.6269 41.1357 15.8239 41.2682 16.041 41.3586C16.2581 41.4491 16.4909 41.4956 16.726 41.4956C16.9612 41.4956 17.194 41.4491 17.4111 41.3586C17.6281 41.2682 17.8251 41.1357 17.9907 40.9687Z" fill="black"/>
</svg>
