<svg width="625" height="341" viewBox="0 0 625 341" fill="none" xmlns="http://www.w3.org/2000/svg">
<path d="M428.498 291.735C486.824 291.048 545.148 291.442 603.47 292.918C608.488 293.045 613.694 293.208 618.125 294.536C622.555 295.863 625.965 298.711 624.753 301.446C601.986 302.119 579.195 302.327 556.381 302.07C551.413 304.501 545.958 308.163 549.012 311.442C551.125 313.711 556.34 314.387 560.901 314.392C569.162 314.402 577.456 313.047 585.594 313.842C593.732 314.636 601.853 318.913 599.469 323.352C597.659 326.724 590.79 328.393 584.54 328.691C578.289 328.989 571.889 328.369 565.779 329.167C559.973 329.926 554.943 331.898 549.509 333.274C540.937 335.444 531.435 336.115 522.087 336.686C450.303 341.067 377.924 341.032 305.718 340.993C276.485 340.977 246.856 340.932 218.628 336.669C202.537 334.239 187.118 330.465 170.824 328.506C151.362 326.167 131.247 326.485 111.343 326.555C76.4023 326.678 41.4908 326.005 6.60871 324.537C4.01292 324.427 0.826658 324.057 0.126127 322.65C-0.691416 321.008 2.62651 319.726 5.43108 319.071C21.3229 315.396 37.4819 312.988 53.7554 311.869C61.9971 311.29 70.4899 310.996 78.0701 309.09C85.6502 307.184 92.2725 303.186 92.2014 298.524C92.1797 297.102 91.579 295.581 92.767 294.324C94.3446 292.656 98.226 292.274 101.575 292.092C138.699 290.076 176.025 289.234 213.318 289.572C226.436 289.691 239.608 289.955 252.633 289.072C263.306 288.349 273.759 286.864 284.277 285.617C298.395 283.943 359.838 275.274 368.801 282.308C375.51 287.574 361.658 288.71 379.653 290.859C395.322 292.73 412.606 291.923 428.498 291.735Z" fill="#F2F2F2"/>
<path d="M201.431 267.685C201.431 267.685 179.802 310.444 198.21 310.444C216.618 310.444 448.564 311.364 455.007 299.41C459.521 291.034 457.032 261.219 455.137 244.117C454.769 240.793 453.141 237.736 450.586 235.575C448.032 233.414 444.746 232.313 441.404 232.498C391.24 235.264 203.838 245.516 204.653 244.236C206.264 241.707 205.113 242.397 205.113 242.397C205.113 242.397 197.75 265.846 201.431 267.685Z" fill="#3F3D56"/>
<path opacity="0.1" d="M455.597 244.117C455.229 240.793 453.601 237.736 451.046 235.575C448.492 233.414 445.206 232.313 441.864 232.498C391.7 235.264 204.298 245.516 205.113 244.236C206.724 241.707 205.573 242.397 205.573 242.397C205.573 242.397 203.93 247.632 202.584 253.348C202.775 253.33 202.917 253.509 202.296 254.601C202.241 254.848 202.186 255.094 202.133 255.341C209.638 256.082 389.634 246.235 438.642 243.533C441.984 243.348 445.27 244.449 447.825 246.61C450.379 248.771 452.008 251.828 452.376 255.151C453.785 267.867 455.521 287.607 454.464 300.341C454.872 300.12 455.217 299.8 455.467 299.41C459.981 291.034 457.492 261.219 455.597 244.117Z" fill="black"/>
<path d="M227.212 203.603C224.814 202.869 221.78 201.921 222.053 200.375C222.199 199.554 223.299 198.913 224.096 198.225C225.632 196.897 226.047 195.027 224.396 193.745C222.746 192.463 218.771 192.292 217.315 193.649C216.565 194.346 216.611 195.222 216.224 196.01C215.017 198.469 210.136 199.549 205.989 200.504C201.843 201.46 197.203 203.237 197.593 205.781C198.018 208.556 204.415 211.018 201.841 213.385C200.908 214.243 198.945 214.722 198.527 215.703C198.233 216.394 198.823 217.096 199.396 217.727L203.47 222.211C205.091 223.995 206.761 225.936 206.218 227.922C205.142 231.858 196.397 233.363 189.465 232.921C186.926 232.759 183.943 232.538 182.198 233.603C180.854 234.425 180.856 235.704 181.303 236.799C182.453 239.617 186.132 242.057 190.841 243.125C185.564 244.166 183.491 248.55 187.135 250.966C185.049 251.682 182.795 251.747 180.673 251.151C178.871 252.808 179.93 255.083 182.215 256.533C184.501 257.982 187.739 258.798 190.874 259.573L187.94 262.314C190.063 263.97 194.648 263.386 197.74 262.339C200.832 261.292 204.188 259.886 207.652 260.434C210.901 260.948 213.359 263.113 216.667 262.742C219.231 262.455 220.451 260.809 221.249 259.388L224.645 253.348C229.478 254.104 234.56 250.795 232.619 248.156C238.028 248.737 243.352 245.228 241.576 242.252C244.457 244.472 246.485 247.05 247.477 249.754C247.92 250.963 248.19 252.24 249.398 253.264C250.187 253.851 251.102 254.247 252.07 254.422C253.038 254.597 254.034 254.546 254.979 254.273C253.993 256.184 253.194 258.413 255.221 260.034C257.247 261.655 263.096 261.195 262.838 259.209C265.929 260.536 269.392 261.783 273.255 261.882C277.118 261.981 281.345 260.512 281.697 258.313C287.14 260.106 292.835 261.022 298.567 261.026C299.055 259.554 302.46 259.078 305.006 259.438C307.552 259.797 309.914 260.662 312.536 260.663C315.159 260.665 317.979 259.088 316.636 257.801C322.159 258.955 327.828 259.241 333.439 258.648C338.731 258.087 343.747 256.753 349.107 256.465C354.544 256.134 359.987 256.993 365.057 258.982C366.814 259.718 368.998 260.644 370.928 260.067C372.023 259.739 372.555 259.032 373.299 258.468C376.5 256.042 383.046 256.507 388.097 257.461C393.147 258.415 399.022 259.564 403.447 257.877C405.117 257.241 406.347 256.258 408.123 255.724C414.486 253.811 422.101 258.713 428.855 257.303C431.054 256.843 432.838 255.744 435.168 255.609C439.3 255.368 442.03 258.166 446.048 258.768C450.216 259.392 454.735 256.858 453.718 254.466C457.725 254.555 461.72 254.001 465.55 252.823L463.658 249.421C468.373 249.345 471.842 245.967 469.657 243.58C474.386 242.68 478.125 240.258 479.097 237.466C480.069 234.674 478.236 231.62 474.47 229.755C472.247 228.655 469.327 227.881 468.057 226.366C467.141 225.274 467.275 224.005 466.919 222.812C466.14 220.202 462.763 217.897 458.402 216.998C456.507 216.607 454.435 216.459 452.719 215.856C451.004 215.253 449.765 213.948 450.755 212.946C451.279 212.416 452.288 212.104 452.941 211.622C455.586 209.67 451.05 207.2 447.177 206.104L456.425 205.802L458.411 196.807C454.752 199.78 445.261 199.155 442.883 195.784C445.854 196.758 449.838 195.513 451.291 193.741C452.743 191.969 452.386 189.909 451.999 187.965C451.962 187.482 451.801 187.017 451.531 186.615C451.26 186.213 450.891 185.888 450.457 185.671C449.552 185.24 448.11 185.06 447.813 184.409C447.51 183.745 448.681 183.157 448.855 182.478C449.188 181.174 446.188 180.599 444.161 179.968C439.38 178.48 437.065 174.298 431.626 174.434C426.228 174.569 424.72 178.686 424.716 181.771C424.713 184.857 422.886 188.983 417.484 188.927C415.327 188.905 413.447 188.13 411.725 187.388L396.254 180.722C394.21 179.772 392.084 179.01 389.901 178.446C386.78 177.719 383.333 177.633 379.965 177.556L358.324 177.065C357.222 176.979 356.113 177.074 355.041 177.347C353.905 177.727 353.352 178.474 352.667 179.116C349.654 181.943 342.569 183.05 337.456 181.493C336.1 181.08 334.885 180.511 333.449 180.2C328.924 179.22 324.175 181.033 319.474 181.688C311.767 182.761 302.19 180.914 296.634 184.148C294.781 185.226 293.799 186.7 292.082 187.849C290.365 188.998 287.268 189.778 285.103 188.91C285.375 191.019 285.623 193.219 284.194 195.17C282.765 197.12 279.1 198.712 275.499 198.22C273.588 197.716 273.739 196.111 274.643 195.025C275.547 193.939 276.933 192.83 276.482 191.655C276.035 190.49 273.99 189.812 272.46 189C270.93 188.188 269.91 186.648 271.535 185.898C270.44 184.493 266.505 184.664 264.774 185.843C263.044 187.022 262.871 188.682 262.682 190.217C262.493 191.751 262.082 193.432 260.076 194.459C256.659 196.21 250.097 195.302 247.831 197.581C247.111 198.306 247.068 199.179 246.656 199.978C244.817 203.544 236.879 204.468 230.39 204.759C230.253 205.501 230.223 206.258 230.3 207.009C232.519 206.049 228.821 204.096 227.212 203.603Z" fill="#61AB43"/>
<path opacity="0.1" d="M451.999 199.53C452.386 201.474 452.743 203.534 451.291 205.306C451.075 205.562 450.831 205.793 450.564 205.994C452.518 205.93 454.471 205.866 456.425 205.802C457.087 202.804 457.749 199.805 458.411 196.807C456.895 198.039 454.378 198.651 451.781 198.708C451.874 198.976 451.946 199.251 451.999 199.53Z" fill="black"/>
<path opacity="0.1" d="M453.706 210.126C453.475 208.91 451.468 207.676 449.221 206.794C447.244 207.732 444.994 207.929 442.883 207.349C444.523 209.674 449.546 210.692 453.706 210.126Z" fill="black"/>
<path opacity="0.1" d="M456.577 216.68C456.526 216.909 456.476 217.138 456.425 217.367C453.343 217.468 450.26 217.569 447.177 217.67C451.05 218.765 455.586 221.236 452.941 223.188C452.288 223.669 451.279 223.981 450.755 224.511C449.765 225.513 451.004 226.819 452.719 227.421C454.435 228.024 456.507 228.173 458.402 228.563C462.763 229.462 466.14 231.767 466.919 234.378C467.275 235.57 467.142 236.84 468.057 237.931C469.327 239.446 472.247 240.22 474.47 241.321C474.684 241.427 474.89 241.537 475.091 241.651C477.101 240.515 478.546 239.051 479.097 237.466C480.069 234.674 478.236 231.62 474.47 229.755C472.247 228.655 469.327 227.881 468.057 226.366C467.142 225.275 467.275 224.005 466.919 222.812C466.14 220.202 462.763 217.897 458.402 216.998C457.806 216.875 457.192 216.776 456.577 216.68Z" fill="black"/>
<path opacity="0.1" d="M185.639 258.103C186.359 256.571 188.198 255.212 190.841 254.691C188.316 254.167 185.936 253.095 183.872 251.55C182.791 251.582 181.712 251.447 180.673 251.151C178.871 252.808 179.93 255.083 182.216 256.533C183.293 257.184 184.442 257.711 185.639 258.103Z" fill="black"/>
<path opacity="0.1" d="M201.951 213.271C203.268 212.779 204.617 212.377 205.989 212.069C210.136 211.114 215.017 210.034 216.224 207.575C216.611 206.787 216.565 205.912 217.315 205.214C218.771 203.857 222.746 204.029 224.396 205.311C226.047 206.593 225.632 208.462 224.096 209.79C223.299 210.479 222.199 211.119 222.053 211.941C221.78 213.487 224.814 214.435 227.212 215.169C228.341 215.532 229.397 216.088 230.334 216.814C230.354 216.65 230.374 216.486 230.39 216.324C236.879 216.033 244.817 215.11 246.656 211.544C247.068 210.745 247.111 209.871 247.831 209.147C250.097 206.867 256.659 207.775 260.076 206.025C262.082 204.998 262.493 203.317 262.682 201.782C262.871 200.247 263.043 198.587 264.774 197.408C266.505 196.23 270.44 196.058 271.535 197.464C269.91 198.213 270.93 199.753 272.46 200.565C273.99 201.377 276.035 202.055 276.482 203.22C276.933 204.395 275.547 205.505 274.643 206.591C273.739 207.677 273.588 209.281 275.499 209.786C279.1 210.278 282.765 208.686 284.194 206.735C285.623 204.784 285.375 202.584 285.103 200.475C287.268 201.343 290.365 200.564 292.082 199.414C293.798 198.265 294.781 196.791 296.634 195.713C302.19 192.479 311.767 194.327 319.474 193.253C324.175 192.598 328.924 190.786 333.449 191.766C334.885 192.077 336.1 192.646 337.456 193.058C342.569 194.615 349.654 193.508 352.667 190.681C353.352 190.039 353.904 189.292 355.041 188.912C356.113 188.639 357.222 188.544 358.324 188.63C365.538 188.794 372.751 188.958 379.965 189.122C383.333 189.198 386.78 189.284 389.901 190.012C392.083 190.576 394.21 191.337 396.254 192.287C401.411 194.509 406.568 196.731 411.725 198.953C413.447 199.695 415.327 200.47 417.484 200.493C422.886 200.549 424.712 196.422 424.716 193.337C424.72 190.251 426.228 186.134 431.626 185.999C437.065 185.863 439.38 190.045 444.161 191.533C446.188 192.164 449.188 192.739 448.855 194.043C448.7 194.648 447.756 195.181 447.766 195.76C449.112 195.443 450.337 194.742 451.291 193.741C452.743 191.969 452.386 189.909 451.998 187.965C451.962 187.482 451.801 187.017 451.53 186.615C451.26 186.213 450.891 185.888 450.457 185.671C449.552 185.24 448.11 185.06 447.813 184.409C447.51 183.745 448.681 183.157 448.855 182.478C449.188 181.174 446.188 180.599 444.161 179.968C439.38 178.48 437.065 174.298 431.626 174.434C426.228 174.569 424.72 178.686 424.716 181.772C424.712 184.857 422.886 188.984 417.484 188.927C415.327 188.905 413.447 188.13 411.725 187.388C406.568 185.166 401.411 182.944 396.254 180.722C394.21 179.772 392.083 179.01 389.901 178.446C386.78 177.719 383.333 177.633 379.965 177.557C372.751 177.393 365.538 177.229 358.324 177.065C357.222 176.979 356.113 177.074 355.041 177.347C353.904 177.727 353.352 178.474 352.667 179.116C349.654 181.943 342.569 183.05 337.456 181.493C336.1 181.08 334.885 180.511 333.449 180.2C328.924 179.221 324.175 181.033 319.474 181.688C311.767 182.761 302.19 180.914 296.634 184.148C294.781 185.226 293.798 186.7 292.082 187.849C290.365 188.998 287.268 189.778 285.103 188.91C285.375 191.019 285.623 193.219 284.194 195.17C282.765 197.12 279.1 198.712 275.499 198.221C273.589 197.716 273.739 196.111 274.643 195.025C275.547 193.939 276.933 192.83 276.482 191.655C276.035 190.49 273.989 189.812 272.46 189C270.93 188.188 269.91 186.648 271.535 185.899C270.44 184.493 266.505 184.664 264.774 185.843C263.043 187.022 262.871 188.682 262.682 190.217C262.493 191.751 262.082 193.432 260.076 194.459C256.659 196.21 250.097 195.302 247.831 197.582C247.111 198.306 247.068 199.18 246.656 199.978C244.817 203.544 236.879 204.468 230.39 204.759C230.374 204.921 230.354 205.085 230.334 205.249C229.397 204.523 228.341 203.966 227.212 203.603C224.814 202.869 221.78 201.921 222.053 200.375C222.199 199.554 223.299 198.913 224.096 198.225C225.632 196.897 226.047 195.028 224.396 193.745C222.746 192.463 218.771 192.292 217.315 193.649C216.565 194.347 216.611 195.222 216.224 196.01C215.017 198.469 210.136 199.549 205.989 200.504C201.843 201.46 197.203 203.237 197.593 205.781C198.011 208.512 204.206 210.94 201.951 213.271Z" fill="black"/>
<path opacity="0.1" d="M190.841 243.125C189.701 243.336 188.611 243.762 187.631 244.381C188.252 244.408 188.871 244.449 189.465 244.487C196.397 244.929 205.142 243.423 206.218 239.487C206.761 237.501 205.091 235.56 203.47 233.776C202.819 233.059 202.167 232.342 201.516 231.625C198.124 232.776 193.49 233.178 189.465 232.921C186.926 232.759 183.943 232.538 182.199 233.603C180.854 234.425 180.857 235.704 181.303 236.799C182.453 239.617 186.132 242.057 190.841 243.125Z" fill="black"/>
<path d="M332.017 225.128C370.142 225.128 401.049 204.749 401.049 179.61C401.049 154.471 370.142 134.092 332.017 134.092C293.892 134.092 262.986 154.471 262.986 179.61C262.986 204.749 293.892 225.128 332.017 225.128Z" fill="#EA565C"/>
<path opacity="0.2" d="M308.547 176.391C308.547 176.391 277.252 179.61 286.457 166.276C295.661 152.943 307.166 148.345 312.688 152.023C318.211 155.701 320.512 165.817 319.592 165.817C318.671 165.817 305.325 158 300.723 163.977C296.121 169.955 308.547 176.391 308.547 176.391Z" fill="white"/>
<path opacity="0.2" d="M335.662 177.695C335.662 177.695 361.505 195.619 345.827 199.745C330.15 203.872 318.423 199.873 316.631 193.488C314.839 187.103 319.689 177.931 320.387 178.53C321.085 179.129 326.115 193.745 333.504 192.205C340.893 190.665 335.662 177.695 335.662 177.695Z" fill="white"/>
<path opacity="0.2" d="M341.695 166.462C341.695 166.462 343.735 135.098 355.36 146.387C366.985 157.676 369.605 169.776 365.055 174.603C360.504 179.43 350.138 180.011 350.291 179.104C350.444 178.198 360.383 166.353 355.251 160.824C350.119 155.294 341.695 166.462 341.695 166.462Z" fill="white"/>
<path d="M248.719 221.45C286.844 221.45 317.751 201.071 317.751 175.932C317.751 150.793 286.844 130.414 248.719 130.414C210.594 130.414 179.688 150.793 179.688 175.932C179.688 201.071 210.594 221.45 248.719 221.45Z" fill="#EA565C"/>
<path opacity="0.2" d="M225.249 172.713C225.249 172.713 193.954 175.932 203.159 162.598C212.363 149.265 223.868 144.667 229.39 148.345C234.913 152.023 237.214 162.138 236.294 162.138C235.373 162.138 222.027 154.322 217.425 160.299C212.823 166.276 225.249 172.713 225.249 172.713Z" fill="white"/>
<path opacity="0.2" d="M252.364 174.016C252.364 174.016 278.207 191.941 262.529 196.067C246.852 200.194 235.125 196.194 233.333 189.81C231.541 183.425 236.391 174.253 237.089 174.852C237.787 175.451 242.817 190.067 250.206 188.527C257.595 186.987 252.364 174.016 252.364 174.016Z" fill="white"/>
<path opacity="0.2" d="M258.397 162.783C258.397 162.783 260.437 131.419 272.062 142.709C283.687 153.998 286.307 166.098 281.757 170.925C277.206 175.752 266.84 176.333 266.993 175.426C267.146 174.52 277.085 162.675 271.953 157.145C266.821 151.616 258.397 162.783 258.397 162.783Z" fill="white"/>
<path opacity="0.1" d="M284.644 137.194C299.68 145.544 309.237 158.047 309.237 172.024C309.237 197.162 278.331 217.542 240.206 217.542C227.142 217.542 214.927 215.148 204.511 210.991C216.519 217.66 232.021 221.68 248.95 221.68C287.075 221.68 317.981 201.3 317.981 176.162C317.981 159.637 304.625 145.169 284.644 137.194Z" fill="black"/>
<path opacity="0.1" d="M367.942 140.412C382.978 148.762 392.535 161.265 392.535 175.242C392.535 200.381 361.628 220.76 323.503 220.76C310.44 220.76 298.225 218.367 287.809 214.21C299.817 220.878 315.319 224.898 332.247 224.898C370.372 224.898 401.279 204.519 401.279 179.38C401.279 162.855 387.923 148.387 367.942 140.412Z" fill="black"/>
<path d="M206.767 167.212C206.767 167.212 266.134 103.762 411.56 129.969C526.521 150.687 432.119 186.344 387.521 200.375C374.581 204.444 361.177 206.855 347.63 207.55C297.317 210.139 170.763 212.453 206.767 167.212Z" fill="#714B4F"/>
<path opacity="0.1" d="M387.521 186.122C374.581 190.191 361.177 192.602 347.63 193.297C306.871 195.394 216.082 197.31 202.211 173.909C184.696 211.732 300.133 209.534 347.63 207.091C361.177 206.395 374.581 203.984 387.521 199.915C420.21 189.631 479.654 167.727 463.798 148.605C453.123 163.612 412.507 178.261 387.521 186.122Z" fill="black"/>
<path opacity="0.1" d="M333.555 130.199L349.662 161.924" stroke="black" stroke-width="2" stroke-miterlimit="10"/>
<path opacity="0.1" d="M283.852 141.694L297.658 168.361" stroke="black" stroke-width="2" stroke-miterlimit="10"/>
<path opacity="0.1" d="M362.548 130.199L384.178 161.924" stroke="black" stroke-width="2" stroke-miterlimit="10"/>
<path opacity="0.1" d="M283.852 171.12L428.818 152.729" stroke="black" stroke-width="2" stroke-miterlimit="10"/>
<path opacity="0.1" d="M423.296 136.177L433.42 150.43" stroke="black" stroke-width="2" stroke-miterlimit="10"/>
<path opacity="0.1" d="M255.319 152.729L261.762 166.062" stroke="black" stroke-width="2" stroke-miterlimit="10"/>
<path d="M276.958 109.534C276.958 109.534 409.342 108.935 410.556 107.739C411.771 106.542 439.705 105.908 445.17 113.687C450.636 121.465 452.458 125.055 445.17 126.252C437.883 127.449 198.014 250.111 198.014 250.111C198.014 250.111 184.654 251.307 191.334 238.144C198.014 224.98 276.958 109.534 276.958 109.534Z" fill="#F6C964"/>
<path d="M332.537 164.245C332.537 169.197 308.636 181.257 279.153 181.257C249.669 181.257 225.768 169.197 225.768 164.245C225.768 159.293 249.669 157.348 279.153 157.348C308.636 157.348 332.537 159.293 332.537 164.245Z" fill="#61AB43"/>
<path d="M279.153 172.981C308.636 172.981 332.537 168.967 332.537 164.015C332.537 159.064 308.636 155.049 279.153 155.049C249.669 155.049 225.768 159.064 225.768 164.015C225.768 168.967 249.669 172.981 279.153 172.981Z" fill="#61AB43"/>
<path d="M396.966 155.969C396.966 160.921 373.065 172.981 343.582 172.981C314.098 172.981 290.198 160.921 290.198 155.969C290.198 151.017 314.098 149.072 343.582 149.072C373.065 149.072 396.966 151.017 396.966 155.969Z" fill="#61AB43"/>
<path d="M343.582 164.705C373.065 164.705 396.966 160.691 396.966 155.739C396.966 150.787 373.065 146.773 343.582 146.773C314.098 146.773 290.198 150.787 290.198 155.739C290.198 160.691 314.098 164.705 343.582 164.705Z" fill="#61AB43"/>
<path d="M461.395 147.693C461.395 152.645 437.495 164.705 408.011 164.705C378.528 164.705 354.627 152.645 354.627 147.693C354.627 142.741 378.528 140.796 408.011 140.796C437.495 140.796 461.395 142.741 461.395 147.693Z" fill="#61AB43"/>
<path d="M408.011 156.429C437.495 156.429 461.395 152.415 461.395 147.463C461.395 142.512 437.495 138.497 408.011 138.497C378.528 138.497 354.627 142.512 354.627 147.463C354.627 152.415 378.528 156.429 408.011 156.429Z" fill="#61AB43"/>
<path d="M211.407 150.24C211.407 150.24 189.451 146.669 200.684 128.815C211.918 110.96 215.696 90.9459 220.598 86.4743C226.078 81.4752 339.193 -6.17416 427.316 90.8147C436.652 101.212 444.241 113.052 449.789 125.873C450.855 128.297 452.03 130.473 453.179 131.621C456.753 135.191 459.817 145.394 453.179 150.495C446.541 155.597 250.979 175.492 211.407 150.24Z" fill="#3F3D56"/>
<path d="M314.294 76.0167C312.941 76.9568 311.346 77.488 309.698 77.5471C307.16 77.5471 305.103 76.8619 305.103 76.0167C305.103 75.1715 307.16 74.4863 309.698 74.4863C311.346 74.5454 312.941 75.0767 314.294 76.0167Z" fill="#F2F2F2"/>
<path d="M277.53 66.3243C276.177 67.2644 274.582 67.7956 272.935 67.8547C270.397 67.8547 268.339 67.1695 268.339 66.3243C268.339 65.4791 270.397 64.7939 272.935 64.7939C274.582 64.853 276.177 65.3843 277.53 66.3243Z" fill="#F2F2F2"/>
<path d="M377.399 80.4482C375.827 80.9417 374.146 80.9729 372.556 80.538C370.134 79.7809 368.375 78.5133 368.628 77.7067C368.88 76.9 371.049 76.8598 373.471 77.6168C375.025 78.1645 376.389 79.1474 377.399 80.4482Z" fill="#F2F2F2"/>
<path d="M309.489 54.4317C307.917 54.9253 306.235 54.9564 304.646 54.5215C302.224 53.7645 300.465 52.4968 300.717 51.6902C300.97 50.8835 303.138 50.8433 305.56 51.6004C307.115 52.148 308.478 53.1309 309.489 54.4317Z" fill="#F2F2F2"/>
<path d="M383.527 63.6141C381.954 64.1076 380.273 64.1388 378.684 63.7039C376.261 62.9468 374.502 61.6792 374.755 60.8725C375.008 60.0659 377.176 60.0257 379.598 60.7827C381.153 61.3304 382.516 62.3133 383.527 63.6141Z" fill="#F2F2F2"/>
<path d="M368.418 62.2433C367.065 63.1833 365.47 63.7146 363.823 63.7736C361.285 63.7736 359.227 63.0885 359.227 62.2433C359.227 61.3981 361.285 60.7129 363.823 60.7129C365.47 60.772 367.065 61.3032 368.418 62.2433Z" fill="#F2F2F2"/>
<path d="M324.506 53.061C323.153 54.0011 321.558 54.5323 319.911 54.5914C317.373 54.5914 315.315 53.9062 315.315 53.061C315.315 52.2158 317.373 51.5306 319.911 51.5306C321.558 51.5897 323.153 52.121 324.506 53.061Z" fill="#F2F2F2"/>
<path d="M358.206 53.061C356.853 54.0011 355.258 54.5323 353.611 54.5914C351.073 54.5914 349.015 53.9062 349.015 53.061C349.015 52.2158 351.073 51.5306 353.611 51.5306C355.258 51.5897 356.853 52.121 358.206 53.061Z" fill="#F2F2F2"/>
<path d="M345.441 72.9559C344.088 73.896 342.493 74.4272 340.845 74.4863C338.307 74.4863 336.25 73.8011 336.25 72.9559C336.25 72.1107 338.307 71.4255 340.845 71.4255C342.493 71.4846 344.088 72.0159 345.441 72.9559Z" fill="#F2F2F2"/>
<path d="M308.312 69.3808C308.695 67.7794 309.532 66.3219 310.721 65.1823C312.615 63.4942 314.607 62.637 315.17 63.2676C315.733 63.8983 314.655 65.7781 312.761 67.4662C311.492 68.5176 309.948 69.1823 308.312 69.3808Z" fill="#F2F2F2"/>
<path d="M285.335 63.7695C285.718 62.1681 286.554 60.7106 287.744 59.571C289.638 57.8829 291.629 57.0257 292.193 57.6563C292.756 58.287 291.677 60.1667 289.784 61.8548C288.515 62.9063 286.971 63.5709 285.335 63.7695Z" fill="#F2F2F2"/>
<path d="M245.508 91.3164C245.891 89.7149 246.727 88.2575 247.917 87.1179C249.81 85.4298 251.802 84.5725 252.365 85.2032C252.929 85.8339 251.85 87.7136 249.956 89.4017C248.688 90.4531 247.144 91.1178 245.508 91.3164Z" fill="#F2F2F2"/>
<path d="M333.842 60.7087C334.226 59.1073 335.062 57.6498 336.251 56.5102C338.145 54.8221 340.137 53.9649 340.7 54.5955C341.263 55.2262 340.185 57.1059 338.291 58.794C337.023 59.8455 335.478 60.5101 333.842 60.7087Z" fill="#F2F2F2"/>
<path d="M324.651 79.0732C325.035 77.4718 325.871 76.0143 327.061 74.8747C328.954 73.1866 330.946 72.3294 331.509 72.96C332.072 73.5907 330.994 75.4704 329.1 77.1585C327.832 78.21 326.287 78.8747 324.651 79.0732Z" fill="#F2F2F2"/>
<path d="M494.257 278.979C494.257 278.979 487.266 281.075 483.77 285.265C483.77 285.265 477.478 288.059 473.633 287.361C469.788 286.662 462.797 293.647 468.39 295.742C473.983 297.837 508.239 303.425 508.938 301.679C509.637 299.933 509.637 282.122 509.637 282.122L494.257 278.979Z" fill="#575A89"/>
<path d="M549.172 275.98C549.172 275.98 542.642 279.238 539.915 283.963C539.915 283.963 534.193 287.79 530.285 287.758C526.377 287.726 520.683 295.801 526.551 296.911C532.42 298.021 567.128 297.681 567.519 295.841C567.909 294.001 564.864 276.452 564.864 276.452L549.172 275.98Z" fill="#575A89"/>
<path d="M505.617 39.2366C514.304 39.2366 521.347 32.2007 521.347 23.5215C521.347 14.8423 514.304 7.8064 505.617 7.8064C496.93 7.8064 489.887 14.8423 489.887 23.5215C489.887 32.2007 496.93 39.2366 505.617 39.2366Z" fill="#FFB9B9"/>
<path d="M518.376 26.1406C518.376 26.1406 520.123 38.0143 523.269 39.4112C525.458 40.4876 527.464 41.9018 529.212 43.6019L520.473 47.7925L503.345 46.7449C503.345 46.7449 504.743 39.0619 502.296 35.2205C499.849 31.379 518.376 26.1406 518.376 26.1406Z" fill="#FFB9B9"/>
<path d="M550.884 82.3658C550.884 82.3658 558.924 102.97 550.884 122.876C542.844 142.782 539.349 145.925 539.349 145.925L536.902 119.733L539.715 117.183C539.715 117.183 541.419 109.237 540.034 104.532C538.65 99.8271 540.747 85.1596 540.747 85.1596L550.884 82.3658Z" fill="#FFB9B9"/>
<path d="M490.761 127.067C490.761 127.067 480.624 150.115 481.673 161.291C482.721 172.466 490.761 219.611 490.761 219.611C490.761 219.611 489.712 280.376 492.858 280.376C496.004 280.376 511.035 285.964 511.035 282.122C511.035 278.281 514.181 186.085 514.181 186.085C514.181 186.085 532.008 226.596 533.756 229.739C535.504 232.882 546.689 282.122 550.535 282.122C554.38 282.122 566.264 278.63 565.216 276.185C564.167 273.741 552.282 219.262 545.641 205.293C538.999 191.324 540.397 138.591 540.397 138.591L529.212 114.145L490.761 127.067Z" fill="#3F3D56"/>
<path d="M500.898 16.3624C500.898 16.3624 491.111 15.664 490.412 13.2194C489.712 10.7748 488.314 8.67946 489.013 8.67946C489.712 8.67946 490.062 6.93335 490.062 6.93335C490.062 6.93335 490.761 6.58413 491.111 6.93335C491.46 7.28257 491.81 4.48878 491.81 4.48878C491.81 4.48878 492.159 3.44111 492.509 4.13956C492.858 4.83801 492.858 4.48878 493.208 3.44111C493.557 2.39343 495.305 1.69499 495.305 1.69499C495.305 1.69499 501.947 2.04421 502.995 0.647317C504.044 -0.749578 515.929 0.298085 518.376 2.04421C520.822 3.79033 531.659 10.0764 529.911 15.3147C528.163 20.5531 521.871 32.0775 521.871 33.8236C521.871 35.5698 519.424 35.2205 518.725 33.4744C518.026 31.7283 512.433 29.6329 512.433 28.5853C512.433 27.5376 509.287 17.7593 507.54 18.4578C505.792 19.1562 503.694 24.7438 502.995 23.6961C502.296 22.6485 500.898 16.3624 500.898 16.3624Z" fill="#3F3D56"/>
<path d="M549.136 64.2061C549.136 64.2061 534.805 43.2527 530.61 42.205C526.415 41.1573 516.978 38.3635 516.978 38.3635C516.978 38.3635 507.54 39.7604 504.743 41.1573C501.947 42.5542 491.46 44.9988 491.111 49.1895C490.761 53.3802 493.907 93.541 492.159 97.3825C490.412 101.224 484.469 137.893 487.266 137.194C490.062 136.496 487.965 127.416 500.199 127.067C512.433 126.717 519.075 119.384 523.619 128.114C528.163 136.845 541.097 143.48 541.097 143.48C541.422 140.665 541.888 137.867 542.495 135.099C543.544 130.21 539.698 118.336 539.698 118.336C539.698 118.336 540.048 90.7472 541.446 87.6042C542.844 84.4611 549.136 64.2061 549.136 64.2061Z" fill="#FF6D50"/>
<path d="M543.893 63.5077L549.136 64.2061C549.136 64.2061 548.787 71.1906 550.185 73.286C551.583 75.3813 554.03 86.2073 552.632 86.5565C551.234 86.9057 538.65 89.0011 538.65 89.0011L537.951 72.9368L543.893 63.5077Z" fill="#FF8870"/>
<path d="M487.266 76.0798C487.266 76.0798 483.77 98.7794 482.022 101.573C480.275 104.367 471.536 143.48 471.536 143.48C471.536 143.48 457.166 163.445 464.157 163.096C471.148 162.747 478.527 144.877 478.527 144.877C478.527 144.877 500.199 105.415 500.199 101.224C500.199 97.0333 505.442 76.0799 505.442 76.0799L487.266 76.0798Z" fill="#FFB9B9"/>
<path d="M497.403 45.348L491.111 47.7926C491.111 47.7926 483.071 76.429 484.819 78.8736C486.566 81.3181 507.54 77.8259 507.889 76.7782C508.239 75.7306 504.044 45.348 497.403 45.348Z" fill="#FF8870"/>
<path d="M55.7958 234.864C55.7958 268.89 77.1616 296.423 103.566 296.423L55.7958 234.864Z" fill="#46455B"/>
<path d="M103.566 296.423C103.566 262.015 127.409 234.172 156.874 234.172L103.566 296.423Z" fill="#FF8870"/>
<path d="M73.1038 237.949C73.1038 270.269 86.7284 296.423 103.566 296.423L73.1038 237.949Z" fill="#FF8870"/>
<path d="M103.566 296.423C103.566 252.457 131.125 216.881 165.182 216.881L103.566 296.423Z" fill="#46455B"/>
<path d="M93.5161 296.857C93.5161 296.857 100.291 296.648 102.332 295.196C104.374 293.743 112.753 292.009 113.26 294.338C113.766 296.668 123.441 305.924 115.792 305.986C108.144 306.048 98.0207 304.796 95.9829 303.556C93.9451 302.315 93.5161 296.857 93.5161 296.857Z" fill="#A8A8A8"/>
<path opacity="0.2" d="M115.929 305.175C108.28 305.237 98.1572 303.985 96.1194 302.745C94.5676 301.8 93.9492 298.411 93.7423 296.848C93.599 296.854 93.5161 296.857 93.5161 296.857C93.5161 296.857 93.9452 302.315 95.9829 303.555C98.0207 304.796 108.144 306.047 115.792 305.986C118 305.968 118.763 305.183 118.721 304.021C118.414 304.723 117.572 305.162 115.929 305.175Z" fill="black"/>
</svg>
