<svg width="580" height="480" viewBox="0 0 580 480" fill="none" xmlns="http://www.w3.org/2000/svg">
<g clip-path="url(#clip0_3_297)">
<path d="M387.84 207.799L381.716 219.9L344.153 262.081C344.153 262.081 318.43 285.591 332.721 286.974C347.011 288.357 356.402 265.192 356.402 265.192L400.497 228.198L405.397 211.256L387.84 207.799Z" fill="#9F616A"/>
<path d="M406.621 158.703L400.703 160.107C400.703 160.107 374.128 219.888 376.577 227.149C379.027 234.41 390.051 243.399 394.951 242.708C399.85 242.016 406.621 158.703 406.621 158.703Z" fill="#FF8870"/>
<path d="M489.317 465.926C489.317 465.926 486.718 476.954 494.53 472.541C502.341 468.127 506.413 459.591 506.413 459.591L489.317 465.926Z" fill="#2F2E41"/>
<path d="M396.823 217.134C396.823 217.134 313.939 464.686 343.336 471.947C372.733 479.207 416.012 471.255 415.604 466.415C415.196 461.575 407.847 365.804 407.847 365.804C407.847 365.804 450.717 493.037 503.795 463.303C556.873 433.569 545.033 428.037 540.133 425.963C535.234 423.889 461.333 325.352 461.741 307.027C462.149 288.703 460.925 231.31 451.942 222.666L396.823 217.134Z" fill="#2F2E41"/>
<path d="M449.467 129.119C446.277 126.677 444.288 123.309 443.894 119.683C443.499 116.057 444.728 112.438 447.337 109.543C446.991 109.817 446.654 110.102 446.331 110.404C443.284 113.261 441.702 117.026 441.932 120.871C442.162 124.715 444.186 128.325 447.558 130.907C450.93 133.489 455.374 134.831 459.915 134.639C464.455 134.447 468.719 132.736 471.77 129.882C472.093 129.579 472.394 129.267 472.681 128.948C469.542 131.436 465.413 132.835 461.113 132.867C456.814 132.898 452.657 131.561 449.467 129.119Z" fill="#2F2E41"/>
<path d="M447.859 132.6C467.364 132.6 483.176 119.21 483.176 102.693C483.176 86.176 467.364 72.7863 447.859 72.7863C428.354 72.7863 412.542 86.176 412.542 102.693C412.542 119.21 428.354 132.6 447.859 132.6Z" fill="#2F2E41"/>
<path d="M352.727 470.91C352.727 470.91 343.336 478.862 352.727 478.862C362.118 478.862 371.1 473.676 371.1 473.676L352.727 470.91Z" fill="#2F2E41"/>
<path d="M425.403 121.363C425.403 121.363 431.527 142.799 427.036 146.948C422.545 151.097 412.746 154.209 412.746 154.209L414.379 192.932C414.379 192.932 433.16 187.4 433.977 186.709C434.793 186.017 451.533 163.544 451.533 163.544L467.865 150.406C467.865 150.406 442.959 140.379 450.309 123.092C457.658 105.805 425.403 121.363 425.403 121.363Z" fill="#9F616A"/>
<path d="M461.467 114.217C463.345 104.415 455.485 95.1806 443.911 93.5901C432.336 91.9996 421.431 98.6557 419.553 108.457C417.674 118.258 425.535 127.493 437.109 129.083C448.683 130.674 459.589 124.018 461.467 114.217Z" fill="#9F616A"/>
<path d="M451.942 222.666C451.942 222.666 461.333 196.389 465.824 192.932C470.315 189.475 481.339 156.975 481.339 156.975C481.339 156.975 474.398 149.023 468.682 149.023C462.966 149.023 457.658 150.751 451.125 155.938C448.049 158.38 442.438 161.067 437.361 163.227C435.56 164.006 433.593 164.474 431.576 164.603C429.558 164.731 427.531 164.518 425.612 163.976C423.693 163.433 421.921 162.572 420.399 161.444C418.877 160.315 417.636 158.94 416.749 157.401C415.734 155.575 415.4 153.825 416.42 152.48C416.42 152.48 401.314 155.938 400.497 160.778C399.68 165.618 400.497 175.645 399.272 177.719C398.047 179.794 394.373 182.906 396.006 196.044C397.639 209.182 394.301 225.796 394.301 225.796C409.553 238.119 430.683 230.512 451.942 222.666Z" fill="#FF8870"/>
<path d="M440.306 105.632C450.227 105.632 458.271 100.988 458.271 95.2596C458.271 89.5311 450.227 84.8873 440.306 84.8873C430.384 84.8873 422.341 89.5311 422.341 95.2596C422.341 100.988 430.384 105.632 440.306 105.632Z" fill="#2F2E41"/>
<path d="M470.928 94.5681C480.398 94.5681 488.076 88.0667 488.076 80.0469C488.076 72.0271 480.398 65.5257 470.928 65.5257C461.457 65.5257 453.779 72.0271 453.779 80.0469C453.779 88.0667 461.457 94.5681 470.928 94.5681Z" fill="#2F2E41"/>
<path d="M483.176 90.4192C478.876 90.4187 474.733 89.05 471.569 86.5845C468.404 84.119 466.45 80.7367 466.092 77.1081C466.053 77.5075 466.028 77.9102 466.028 78.3182C466.029 82.168 467.834 85.86 471.049 88.5826C474.263 91.3052 478.622 92.8356 483.169 92.8372C487.715 92.8389 492.076 91.3117 495.293 88.5914C498.51 85.8711 500.32 82.1803 500.324 78.3305V78.3182C500.324 77.9103 500.299 77.5075 500.26 77.1081C499.903 80.7367 497.948 84.119 494.783 86.5845C491.619 89.05 487.476 90.4187 483.176 90.4192Z" fill="#2F2E41"/>
<path d="M442.956 312.507H437.252L425.853 396.708L463.451 395.64L442.956 312.507Z" fill="#FF8870"/>
<path opacity="0.2" d="M442.956 312.507H437.252L425.853 396.708L463.451 395.64L442.956 312.507Z" fill="black"/>
<path d="M441.055 311.431L434.089 396.174L519.424 401.538L526.391 318.94L441.055 311.431Z" fill="#FF8870"/>
<path opacity="0.2" d="M469.786 320.016C470.488 320.016 471.057 319.534 471.057 318.94C471.057 318.346 470.488 317.864 469.786 317.864C469.084 317.864 468.516 318.346 468.516 318.94C468.516 319.534 469.084 320.016 469.786 320.016Z" fill="black"/>
<path opacity="0.2" d="M496.388 322.695C497.09 322.695 497.659 322.213 497.659 321.619C497.659 321.025 497.09 320.543 496.388 320.543C495.687 320.543 495.118 321.025 495.118 321.619C495.118 322.213 495.687 322.695 496.388 322.695Z" fill="black"/>
<path d="M496.704 321.626H496.073C496.073 321.396 496.52 298.773 481.177 296.688C478.154 296.28 475.683 296.858 473.834 298.409C467.499 303.729 470.119 318.755 470.145 318.903L469.523 318.985C469.409 318.354 466.833 303.536 473.396 298.031C475.394 296.347 478.058 295.716 481.282 296.154C497.159 298.305 496.712 321.396 496.704 321.626Z" fill="#3F3D56"/>
<path d="M482.564 204.687L480.522 224.049L484.605 282.134C484.605 282.134 493.996 311.522 479.706 310.83C465.415 310.139 470.723 280.059 470.723 280.059L464.19 212.639L482.564 204.687Z" fill="#9F616A"/>
<path d="M470.723 152.134L481.339 156.975C481.339 156.975 495.629 239.223 487.463 247.175C479.298 255.127 462.558 258.239 461.741 255.127C460.924 252.015 458.066 188.783 458.066 188.783L470.723 152.134Z" fill="#FF8870"/>
<path d="M57.7972 0.477783H45.8902C45.4715 0.477783 45.07 0.618621 44.7739 0.869316C44.4779 1.12001 44.3115 1.46003 44.3115 1.81457V6.24024C44.3115 6.59478 44.4779 6.9348 44.7739 7.1855C45.07 7.43619 45.4715 7.57703 45.8902 7.57703H47.8633V14.2082H55.824V7.57703H57.7971C58.2158 7.57703 58.6173 7.43619 58.9134 7.1855C59.2094 6.9348 59.3758 6.59478 59.3758 6.24024V1.81457C59.3758 1.46004 59.2095 1.12003 58.9134 0.869333C58.6174 0.618639 58.2158 0.477795 57.7972 0.477783Z" fill="#E6E6E6"/>
<path d="M69.7233 40.9815C62.4311 31.9457 58.7032 21.1874 59.0736 10.2476C59.0802 9.99518 58.9835 9.74861 58.7998 9.54973C58.6161 9.35086 58.3568 9.21195 58.0659 9.1566V7.24429H45.4905V9.13003H45.3172C45.1478 9.13022 44.98 9.15866 44.8235 9.21374C44.6671 9.26883 44.5249 9.34947 44.4053 9.45106C44.2856 9.55266 44.1908 9.67322 44.1261 9.80586C44.0615 9.9385 44.0283 10.0806 44.0285 10.2241C44.0286 10.2507 44.0297 10.2772 44.032 10.3036C45.0228 21.9981 41.6774 32.4855 33.9959 41.7658C33.5539 42.2992 33.3281 42.9395 33.3524 43.5907L34.7274 79.6089C34.7604 80.4123 35.1586 81.1738 35.8388 81.7346C36.519 82.2953 37.4287 82.6119 38.378 82.6183H66.8216C67.7817 82.6117 68.7008 82.2878 69.3831 81.7158C70.0654 81.1438 70.457 80.3688 70.4744 79.5558L71.0043 44.5851C71.0199 43.3015 70.5731 42.0445 69.7233 40.9815Z" fill="#E6E6E6"/>
<path d="M65.2206 52.9456H40.4627C40.0963 52.9456 39.7341 53.0127 39.4011 53.1424C39.0681 53.272 38.7722 53.461 38.5336 53.6966C38.2949 53.9321 38.1193 54.2085 38.0186 54.5069C37.918 54.8053 37.8947 55.1186 37.9505 55.4254L41.6917 76.0182H63.1746L67.719 55.4947C67.7878 55.1839 67.7749 54.864 67.6811 54.5579C67.5874 54.2517 67.4151 53.9668 67.1766 53.7234C66.9381 53.4801 66.6391 53.2842 66.3011 53.1498C65.963 53.0153 65.5941 52.9456 65.2206 52.9456V52.9456Z" fill="white"/>
<path d="M190.345 108.375H178.438C178.019 108.375 177.618 108.516 177.322 108.766C177.026 109.017 176.859 109.357 176.859 109.712V114.137C176.859 114.492 177.026 114.832 177.322 115.082C177.618 115.333 178.019 115.474 178.438 115.474H180.411V122.105H188.372V115.474H190.345C190.764 115.474 191.165 115.333 191.461 115.082C191.757 114.832 191.924 114.492 191.924 114.137V109.712C191.924 109.357 191.757 109.017 191.461 108.766C191.165 108.516 190.764 108.375 190.345 108.375Z" fill="#E6E6E6"/>
<path d="M202.271 148.879C194.979 139.843 191.251 129.084 191.621 118.145C191.628 117.892 191.531 117.646 191.348 117.447C191.164 117.248 190.905 117.109 190.614 117.054V115.141H178.038V117.027H177.865C177.696 117.027 177.528 117.056 177.371 117.111C177.215 117.166 177.073 117.246 176.953 117.348C176.833 117.45 176.739 117.57 176.674 117.703C176.609 117.835 176.576 117.978 176.576 118.121C176.576 118.148 176.578 118.174 176.58 118.201C177.571 129.895 174.225 140.383 166.544 149.663C166.102 150.196 165.876 150.836 165.9 151.488L167.275 187.506C167.308 188.309 167.706 189.071 168.387 189.632C169.067 190.192 169.977 190.509 170.926 190.515H199.369C200.33 190.509 201.249 190.185 201.931 189.613C202.613 189.041 203.005 188.266 203.022 187.453L203.552 152.482C203.568 151.199 203.121 149.941 202.271 148.879Z" fill="#E6E6E6"/>
<path d="M197.768 160.843H173.011C172.644 160.843 172.282 160.91 171.949 161.039C171.616 161.169 171.32 161.358 171.081 161.594C170.843 161.829 170.667 162.106 170.566 162.404C170.466 162.702 170.443 163.016 170.498 163.322L174.24 183.915H195.722L200.267 163.392C200.336 163.081 200.323 162.761 200.229 162.455C200.135 162.149 199.963 161.864 199.724 161.62C199.486 161.377 199.187 161.181 198.849 161.047C198.511 160.912 198.142 160.843 197.768 160.843V160.843Z" fill="white"/>
<path d="M41.0575 260.909H35.4095C35.2109 260.909 35.0204 260.976 34.88 261.095C34.7395 261.214 34.6606 261.375 34.6606 261.544V263.643C34.6606 263.811 34.7395 263.972 34.88 264.091C35.0204 264.21 35.2109 264.277 35.4095 264.277H36.3454V267.422H40.1215V264.277H41.0575C41.2561 264.277 41.4465 264.21 41.587 264.091C41.7274 263.972 41.8063 263.811 41.8063 263.643V261.544C41.8063 261.375 41.7274 261.214 41.587 261.095C41.4465 260.976 41.2561 260.909 41.0575 260.909Z" fill="#E6E6E6"/>
<path d="M46.7146 280.122C43.2556 275.836 41.4873 270.733 41.663 265.544C41.6662 265.424 41.6203 265.307 41.5331 265.213C41.446 265.118 41.323 265.053 41.185 265.026V264.119H35.2199V265.014H35.1377C35.0574 265.014 34.9778 265.027 34.9036 265.053C34.8293 265.079 34.7619 265.118 34.7052 265.166C34.6484 265.214 34.6034 265.271 34.5728 265.334C34.5421 265.397 34.5264 265.465 34.5265 265.533C34.5265 265.545 34.527 265.558 34.5282 265.57C35.0787 270.865 33.3917 276.154 29.7676 280.494C29.5579 280.747 29.4507 281.051 29.4623 281.36L30.1145 298.445C30.1302 298.826 30.3191 299.187 30.6417 299.453C30.9644 299.719 31.3959 299.869 31.8462 299.872H45.3383C45.7937 299.869 46.2297 299.716 46.5533 299.444C46.877 299.173 47.0627 298.805 47.0709 298.42L47.3223 281.832C47.3297 281.223 47.1178 280.626 46.7146 280.122Z" fill="#E6E6E6"/>
<path d="M44.7731 286.403H31.8994V291.853H44.7731V286.403Z" fill="white"/>
<path d="M67.3494 260.909H61.7014C61.5028 260.909 61.3124 260.976 61.172 261.095C61.0315 261.214 60.9526 261.375 60.9526 261.544V263.643C60.9526 263.811 61.0315 263.972 61.172 264.091C61.3124 264.21 61.5028 264.277 61.7014 264.277H62.6374V267.422H66.4135V264.277H67.3495C67.5481 264.277 67.7385 264.21 67.879 264.091C68.0194 263.972 68.0983 263.811 68.0983 263.643V261.544C68.0983 261.46 68.0789 261.378 68.0413 261.301C68.0037 261.224 67.9485 261.154 67.879 261.095C67.8094 261.036 67.7269 260.99 67.636 260.958C67.5452 260.926 67.4478 260.909 67.3494 260.909Z" fill="#E6E6E6"/>
<path d="M73.0066 280.122C69.5476 275.836 67.7793 270.733 67.955 265.544C67.9581 265.424 67.9122 265.307 67.8251 265.213C67.738 265.118 67.615 265.053 67.477 265.026V264.119H61.5119V265.014H61.4297C61.3493 265.014 61.2698 265.027 61.1956 265.053C61.1213 265.079 61.0539 265.118 60.9971 265.166C60.9404 265.214 60.8954 265.271 60.8647 265.334C60.8341 265.397 60.8183 265.465 60.8184 265.533C60.8184 265.545 60.819 265.558 60.8201 265.57C61.3707 270.865 59.6836 276.154 56.0595 280.494C55.8499 280.747 55.7427 281.051 55.7543 281.36L56.4065 298.445C56.4222 298.826 56.6111 299.187 56.9337 299.453C57.2564 299.719 57.6879 299.869 58.1382 299.872H71.6303C72.0857 299.869 72.5217 299.716 72.8453 299.444C73.1689 299.173 73.3547 298.805 73.3629 298.42L73.6143 281.832C73.6217 281.223 73.4097 280.626 73.0066 280.122Z" fill="#E6E6E6"/>
<path d="M71.0646 286.403H58.1909V291.853H71.0646V286.403Z" fill="white"/>
<path d="M93.641 260.909H87.993C87.7944 260.909 87.6039 260.976 87.4635 261.095C87.323 261.214 87.2441 261.375 87.2441 261.544V263.643C87.2441 263.811 87.323 263.972 87.4635 264.091C87.6039 264.21 87.7944 264.277 87.993 264.277H88.9289V267.422H92.705V264.277H93.641C93.8396 264.277 94.0301 264.21 94.1705 264.091C94.3109 263.972 94.3898 263.811 94.3898 263.643V261.544C94.3898 261.375 94.3109 261.214 94.1705 261.095C94.0301 260.976 93.8396 260.909 93.641 260.909Z" fill="#E6E6E6"/>
<path d="M99.2981 280.122C95.8391 275.836 94.0708 270.733 94.2465 265.544C94.2496 265.424 94.2037 265.307 94.1166 265.213C94.0295 265.118 93.9065 265.053 93.7685 265.026V264.119H87.8034V265.014H87.7212C87.6408 265.014 87.5613 265.027 87.4871 265.053C87.4128 265.079 87.3454 265.118 87.2886 265.166C87.2319 265.214 87.1869 265.271 87.1562 265.334C87.1256 265.397 87.1098 265.465 87.1099 265.533C87.1099 265.545 87.1105 265.558 87.1116 265.57C87.6622 270.865 85.9751 276.154 82.351 280.494C82.1414 280.747 82.0343 281.051 82.0458 281.36L82.698 298.445C82.7137 298.826 82.9026 299.187 83.2252 299.453C83.5479 299.719 83.9794 299.869 84.4297 299.872H97.9218C98.3772 299.869 98.8132 299.716 99.1368 299.444C99.4605 299.173 99.6462 298.805 99.6544 298.42L99.9058 281.832C99.9132 281.223 99.7012 280.626 99.2981 280.122Z" fill="#E6E6E6"/>
<path d="M97.3561 286.403H84.4824V291.853H97.3561V286.403Z" fill="white"/>
<path d="M169.66 219.168H157.753C157.334 219.168 156.933 219.309 156.637 219.56C156.341 219.811 156.174 220.151 156.174 220.505V224.931C156.174 225.285 156.341 225.625 156.637 225.876C156.933 226.127 157.334 226.268 157.753 226.268H159.726V232.899H167.687V226.268H169.66C169.867 226.268 170.072 226.233 170.264 226.166C170.456 226.099 170.63 226 170.776 225.876C170.923 225.752 171.039 225.605 171.118 225.442C171.198 225.28 171.238 225.106 171.238 224.931V220.505C171.238 220.151 171.072 219.811 170.776 219.56C170.48 219.309 170.079 219.168 169.66 219.168Z" fill="#E6E6E6"/>
<path d="M181.586 259.672C174.294 250.636 170.566 239.878 170.936 228.938C170.943 228.686 170.846 228.439 170.663 228.24C170.479 228.041 170.22 227.902 169.929 227.847V225.935H157.353V227.821H157.18C157.011 227.821 156.843 227.849 156.686 227.904C156.53 227.959 156.388 228.04 156.268 228.142C156.148 228.243 156.054 228.364 155.989 228.496C155.924 228.629 155.891 228.771 155.891 228.915C155.891 228.941 155.893 228.968 155.895 228.994C156.886 240.689 153.54 251.176 145.859 260.456C145.417 260.99 145.191 261.63 145.215 262.281L146.59 298.299C146.623 299.103 147.021 299.864 147.702 300.425C148.382 300.986 149.292 301.302 150.241 301.309H178.684C179.644 301.302 180.564 300.978 181.246 300.406C181.928 299.834 182.32 299.059 182.337 298.246L182.867 263.276C182.883 261.992 182.436 260.735 181.586 259.672Z" fill="#E6E6E6"/>
<path d="M177.083 271.636H152.326C151.959 271.636 151.597 271.703 151.264 271.833C150.931 271.962 150.635 272.152 150.396 272.387C150.158 272.623 149.982 272.899 149.881 273.197C149.781 273.496 149.758 273.809 149.813 274.116L153.555 294.709H175.037L179.582 274.185C179.651 273.874 179.638 273.555 179.544 273.248C179.45 272.942 179.278 272.657 179.039 272.414C178.801 272.171 178.502 271.975 178.164 271.84C177.826 271.706 177.457 271.636 177.083 271.636V271.636Z" fill="white"/>
<path d="M176.16 87.2551H105.183C110.145 64.5363 109.004 37.1026 105.183 7.59961H176.16C172.441 37.1027 171.33 64.5364 176.16 87.2551Z" fill="#E6E6E6"/>
<path d="M141.099 59.7377C150.545 59.7377 158.202 53.2536 158.202 45.2549C158.202 37.2563 150.545 30.7721 141.099 30.7721C131.653 30.7721 123.996 37.2563 123.996 45.2549C123.996 53.2536 131.653 59.7377 141.099 59.7377Z" fill="white"/>
<path d="M111.169 192.98H40.1919C45.1542 170.261 44.0126 142.827 40.1919 113.324H111.169C107.45 142.827 106.339 170.261 111.169 192.98Z" fill="#E6E6E6"/>
<path d="M76.1083 165.462C85.554 165.462 93.2112 158.978 93.2112 150.979C93.2112 142.981 85.554 136.497 76.1083 136.497C66.6626 136.497 59.0054 142.981 59.0054 150.979C59.0054 158.978 66.6626 165.462 76.1083 165.462Z" fill="white"/>
<path d="M216.352 92.3241H145.375C150.337 69.6053 149.196 42.1716 145.375 12.6686H216.352C212.633 42.1717 211.522 69.6054 216.352 92.3241Z" fill="#E6E6E6"/>
<path d="M181.291 64.8067C190.737 64.8067 198.394 58.3226 198.394 50.3239C198.394 42.3253 190.737 35.8411 181.291 35.8411C171.845 35.8411 164.188 42.3253 164.188 50.3239C164.188 58.3226 171.845 64.8067 181.291 64.8067Z" fill="white"/>
<path d="M216.352 88.7034H145.375C150.337 65.9846 149.196 38.5509 145.375 9.04788H216.352C212.633 38.551 211.522 65.9847 216.352 88.7034Z" fill="#E6E6E6"/>
<path d="M181.291 61.186C190.737 61.186 198.394 54.7018 198.394 46.7032C198.394 38.7045 190.737 32.2204 181.291 32.2204C171.845 32.2204 164.188 38.7045 164.188 46.7032C164.188 54.7018 171.845 61.186 181.291 61.186Z" fill="white"/>
<path d="M216.352 92.3241H145.375C150.337 69.6053 149.196 42.1716 145.375 12.6686H216.352C212.633 42.1717 211.522 69.6054 216.352 92.3241Z" fill="#E6E6E6"/>
<path d="M181.291 64.8067C190.737 64.8067 198.394 58.3226 198.394 50.3239C198.394 42.3253 190.737 35.8411 181.291 35.8411C171.845 35.8411 164.188 42.3253 164.188 50.3239C164.188 58.3226 171.845 64.8067 181.291 64.8067Z" fill="white"/>
<path d="M232.6 82.9102H0V104.634H232.6V82.9102Z" fill="#E6E6E6"/>
<path d="M232.6 190.807H0V212.531H232.6V190.807Z" fill="#E6E6E6"/>
<path d="M232.6 298.704H0V320.428H232.6V298.704Z" fill="#E6E6E6"/>
</g>
<defs>
<clipPath id="clip0_3_297">
<rect width="580" height="479.44" fill="white" transform="translate(0 0.477783)"/>
</clipPath>
</defs>
</svg>
