<svg width="580" height="468" viewBox="0 0 580 468" fill="none" xmlns="http://www.w3.org/2000/svg">
<g clip-path="url(#clip0_3_76)">
<path d="M543.374 16.3766H424.523C420.91 16.3766 417.981 19.3083 417.981 22.9247V24.0883C417.981 27.7047 420.91 30.6364 424.523 30.6364H543.374C546.987 30.6364 549.916 27.7047 549.916 24.0883V22.9247C549.916 19.3083 546.987 16.3766 543.374 16.3766Z" fill="#F2F2F2"/>
<path d="M572.926 28.526H454.075C450.462 28.526 447.533 31.4577 447.533 35.074V36.2377C447.533 39.8541 450.462 42.7857 454.075 42.7857H572.926C576.539 42.7857 579.468 39.8541 579.468 36.2377V35.074C579.468 31.4577 576.539 28.526 572.926 28.526Z" fill="#F2F2F2"/>
<path d="M522.788 39.0909H403.938C400.324 39.0909 397.395 42.0226 397.395 45.639V46.8026C397.395 50.419 400.324 53.3507 403.938 53.3507H522.788C526.401 53.3507 529.33 50.419 529.33 46.8026V45.639C529.33 42.0226 526.401 39.0909 522.788 39.0909Z" fill="#F2F2F2"/>
<path d="M317.496 179.597H198.645C195.032 179.597 192.103 182.529 192.103 186.146V187.309C192.103 190.926 195.032 193.857 198.645 193.857H317.496C321.109 193.857 324.038 190.926 324.038 187.309V186.146C324.038 182.529 321.109 179.597 317.496 179.597Z" fill="#F2F2F2"/>
<path d="M347.047 191.747H228.197C224.584 191.747 221.655 194.678 221.655 198.295V199.458C221.655 203.075 224.584 206.007 228.197 206.007H347.047C350.661 206.007 353.59 203.075 353.59 199.458V198.295C353.59 194.678 350.661 191.747 347.047 191.747Z" fill="#F2F2F2"/>
<path d="M296.91 202.305H178.059C174.446 202.305 171.517 205.237 171.517 208.853V210.017C171.517 213.633 174.446 216.565 178.059 216.565H296.91C300.523 216.565 303.452 213.633 303.452 210.017V208.853C303.452 205.237 300.523 202.305 296.91 202.305Z" fill="#F2F2F2"/>
<g opacity="0.5">
<path opacity="0.5" d="M559.966 451.097C556.8 451.097 483.968 482.792 399.53 399.331C353.675 354.014 308.76 349.189 277.283 354.244C257.939 357.348 240.276 366.801 226.285 380.496C215.033 391.554 187.8 406.622 123.994 402.507C25.8339 396.169 -0.0263672 466.422 -0.0263672 466.422H579.974C579.974 466.422 563.112 451.097 559.966 451.097Z" fill="url(#paint0_linear_3_76)"/>
</g>
<path d="M0 468C0 468 25.8602 397.747 124.02 404.084C187.827 408.22 215.066 393.132 226.285 382.08C240.25 368.359 257.906 358.932 277.231 355.829C308.707 350.773 353.629 355.599 399.477 400.916C483.916 484.377 556.747 452.682 559.913 452.682C563.079 452.682 579.967 468 579.967 468H0Z" fill="#F2F2F2"/>
<path opacity="0.02" d="M0 468C0 468 25.8602 397.747 124.02 404.084C187.827 408.22 215.066 393.132 226.285 382.08C240.25 368.359 257.906 358.932 277.231 355.829C308.707 350.773 353.629 355.599 399.477 400.916C483.916 484.377 556.747 452.682 559.913 452.682C563.079 452.682 579.967 468 579.967 468H0Z" fill="black"/>
<path d="M185.554 81.3441H66.7034C63.0902 81.3441 60.1611 84.2758 60.1611 87.8922V89.0558C60.1611 92.6722 63.0902 95.6039 66.7034 95.6039H185.554C189.167 95.6039 192.096 92.6722 192.096 89.0558V87.8922C192.096 84.2758 189.167 81.3441 185.554 81.3441Z" fill="#F2F2F2"/>
<path d="M215.112 93.4935H96.2615C92.6483 93.4935 89.7192 96.4251 89.7192 100.042V101.205C89.7192 104.822 92.6483 107.753 96.2615 107.753H215.112C218.725 107.753 221.654 104.822 221.654 101.205V100.042C221.654 96.4251 218.725 93.4935 215.112 93.4935Z" fill="#F2F2F2"/>
<path d="M164.975 104.058H46.124C42.5109 104.058 39.5818 106.99 39.5818 110.606V111.77C39.5818 115.387 42.5109 118.318 46.124 118.318H164.975C168.588 118.318 171.517 115.387 171.517 111.77V110.606C171.517 106.99 168.588 104.058 164.975 104.058Z" fill="#F2F2F2"/>
<g opacity="0.5">
<path opacity="0.5" d="M130.884 106.701C160.323 106.701 184.188 82.8154 184.188 53.3507C184.188 23.8859 160.323 0 130.884 0C101.446 0 77.5808 23.8859 77.5808 53.3507C77.5808 82.8154 101.446 106.701 130.884 106.701Z" fill="url(#paint1_linear_3_76)"/>
</g>
<path d="M130.884 100.89C157.116 100.89 178.381 79.6057 178.381 53.3507C178.381 27.0956 157.116 5.81171 130.884 5.81171C104.652 5.81171 83.3872 27.0956 83.3872 53.3507C83.3872 79.6057 104.652 100.89 130.884 100.89Z" fill="#FCCC63"/>
<path d="M147.056 388.299H105.74V419.021H147.056V388.299Z" fill="#FF8870"/>
<path d="M102.14 387.05L125.229 363.942C125.396 363.774 125.594 363.641 125.813 363.55C126.032 363.459 126.266 363.412 126.503 363.412C126.74 363.412 126.974 363.459 127.193 363.55C127.411 363.641 127.61 363.774 127.777 363.942L150.682 386.866C150.934 387.118 151.105 387.439 151.175 387.788C151.245 388.137 151.21 388.499 151.074 388.828C150.939 389.158 150.709 389.439 150.413 389.638C150.117 389.836 149.77 389.942 149.414 389.943L103.434 390.127C103.076 390.132 102.725 390.029 102.425 389.833C102.126 389.637 101.891 389.355 101.752 389.025C101.613 388.694 101.576 388.33 101.645 387.978C101.714 387.627 101.887 387.303 102.14 387.05Z" fill="#FF8870"/>
<path opacity="0.05" d="M102.14 387.05L125.229 363.942C125.396 363.774 125.594 363.641 125.813 363.55C126.032 363.459 126.266 363.412 126.503 363.412C126.74 363.412 126.974 363.459 127.193 363.55C127.411 363.641 127.61 363.774 127.777 363.942L150.682 386.866C150.934 387.118 151.105 387.439 151.175 387.788C151.245 388.137 151.21 388.499 151.074 388.828C150.939 389.158 150.709 389.439 150.413 389.638C150.117 389.836 149.77 389.942 149.414 389.943L103.434 390.127C103.076 390.132 102.725 390.029 102.425 389.833C102.126 389.637 101.891 389.355 101.752 389.025C101.613 388.694 101.576 388.33 101.645 387.978C101.714 387.627 101.887 387.303 102.14 387.05Z" fill="black"/>
<path d="M125.866 405.163H126.693C127.93 405.163 129.117 405.654 129.991 406.53C130.866 407.405 131.357 408.592 131.357 409.83V419.034H121.202V409.83C121.202 408.592 121.693 407.405 122.568 406.53C123.443 405.654 124.629 405.163 125.866 405.163Z" fill="white"/>
<path d="M126.51 372.133C127.913 372.133 129.052 370.994 129.052 369.589C129.052 368.184 127.913 367.045 126.51 367.045C125.106 367.045 123.968 368.184 123.968 369.589C123.968 370.994 125.106 372.133 126.51 372.133Z" fill="white"/>
<path d="M118.667 392.224H108.972V399.614H118.667V392.224Z" fill="white"/>
<path d="M114.279 392.224H113.353V399.614H114.279V392.224Z" fill="#FF8870"/>
<path d="M144.514 392.224H134.819V399.614H144.514V392.224Z" fill="white"/>
<path d="M140.133 392.224H139.207V399.614H140.133V392.224Z" fill="#FF8870"/>
<g opacity="0.2">
<path opacity="0.2" d="M297.226 355.77C297.139 355.75 297.226 355.77 297.226 355.77V355.77Z" fill="url(#paint2_linear_3_76)"/>
</g>
<g opacity="0.2">
<path opacity="0.2" d="M298.178 374.862H298.257C298.273 374.855 298.287 374.845 298.298 374.831C298.308 374.817 298.314 374.8 298.316 374.783C298.321 374.757 298.321 374.73 298.316 374.704V374.638C298.25 374.48 298.099 374.27 298.014 374.086L297.974 373.987C297.97 373.943 297.97 373.899 297.974 373.856C297.974 373.856 297.974 373.816 297.974 373.796L299.393 369.135L299.426 369.024C299.426 369.024 301.232 369.799 301.699 371.351C301.967 372.103 301.981 372.923 301.738 373.685L301.705 373.764H301.738V374.618H303.709C303.847 374.553 303.663 374.382 303.479 374.211L303.433 374.165L303.315 374.04C303.281 374.002 303.252 373.96 303.229 373.915L303.196 373.836V373.79H303.137V373.718C303.383 372.576 303.327 371.389 302.975 370.275C302.622 369.161 301.985 368.159 301.127 367.367C301.602 365.948 301.602 364.413 301.127 362.995C301.311 362.863 304.891 360.273 304.865 356.92C304.875 356.741 304.875 356.561 304.865 356.381C304.865 356.381 305.173 356.125 304.865 355.658V355.618H304.832H304.615C304.474 355.632 304.337 355.677 304.214 355.75C304.214 355.75 304.011 356.407 304.214 356.578H304.162C304.162 356.578 302.04 361.18 300.621 361.838L300.523 361.779V361.18C300.524 361.154 300.524 361.128 300.523 361.101C300.524 361.077 300.524 361.053 300.523 361.029C300.682 360.946 300.826 360.837 300.95 360.707C300.997 360.657 301.041 360.605 301.081 360.549L301.134 360.47L301.186 360.378L301.226 360.293C301.254 360.231 301.278 360.167 301.298 360.102V360.023V359.925C301.298 359.925 301.298 359.872 301.298 359.846C301.298 359.813 301.298 359.78 301.298 359.741C301.298 359.552 301.265 359.365 301.199 359.188C301.199 359.14 301.18 359.092 301.14 359.044L301.107 358.971L301.062 358.892C301.097 358.849 301.139 358.811 301.186 358.781C301.277 358.73 301.378 358.698 301.482 358.689H301.738H301.791C301.828 358.674 301.863 358.654 301.896 358.63C301.946 358.588 302.004 358.556 302.066 358.537H301.679H301.62H301.567H301.508H301.456H301.403H301.351H301.298H301.245L301.14 358.491C301.195 358.513 301.252 358.527 301.311 358.531H301.534H301.574L301.613 358.498V358.445H301.541H301.495C301.406 358.458 301.315 358.458 301.226 358.445H301.035H300.95L300.871 358.413C300.979 358.452 301.098 358.446 301.202 358.398C301.306 358.349 301.387 358.261 301.426 358.153C301.465 358.045 301.46 357.926 301.411 357.821C301.363 357.717 301.275 357.637 301.167 357.597L301.239 357.551C301.314 357.486 301.362 357.394 301.37 357.295C301.379 357.254 301.379 357.211 301.37 357.17L301.324 357.209H301.285C301.16 357.297 301.01 357.339 300.858 357.328H300.805C300.671 357.293 300.542 357.245 300.418 357.183L300.306 357.144H300.273H300.181H300.129H300.057H299.708C299.218 357.16 298.75 357.357 298.395 357.696C298.313 357.777 298.238 357.865 298.171 357.959C298.124 357.477 298.212 356.992 298.428 356.559H298.388H298.27L298.211 356.67C298.242 356.512 298.302 356.36 298.388 356.223H298.349C298.436 356.126 298.484 355.999 298.484 355.868C298.484 355.737 298.436 355.611 298.349 355.513C298.04 355.047 297.469 355.408 297.469 355.408C297.422 355.56 297.392 355.717 297.377 355.875L297.285 355.835C297.18 356.19 296.01 360.267 297.941 362.87C297.939 362.925 297.939 362.98 297.941 363.034V367.426L296.628 373.448L296.372 374.585L298.217 374.888L298.178 374.862ZM298.506 360.628C298.611 360.715 298.725 360.787 298.848 360.845C298.844 360.887 298.844 360.928 298.848 360.97V361.542L298.736 361.595C298.651 361.312 298.579 360.983 298.5 360.628H298.506Z" fill="url(#paint3_linear_3_76)"/>
</g>
<path d="M304.884 356.894C304.884 356.894 305.226 356.605 304.884 356.092C304.543 355.579 303.912 355.98 303.912 355.98C303.912 355.98 303.682 356.723 303.912 356.894C304.142 357.065 304.884 356.894 304.884 356.894Z" fill="#CA7070"/>
<path d="M301.35 376.065H302.927C302.921 376.139 302.932 376.215 302.958 376.285C302.984 376.355 303.025 376.419 303.078 376.472C303.288 376.715 303.735 377.011 303.518 377.13H301.35V376.065Z" fill="#00695C"/>
<path opacity="0.2" d="M302.96 376.472C302.907 376.419 302.866 376.355 302.84 376.285C302.813 376.215 302.803 376.139 302.809 376.065H302.92C302.915 376.139 302.925 376.215 302.951 376.285C302.977 376.355 303.018 376.419 303.071 376.472C303.282 376.715 303.728 377.011 303.512 377.13H303.4C303.597 377.011 303.17 376.715 302.96 376.472Z" fill="white"/>
<path d="M295.728 375.742L297.225 376.005C297.185 376.181 297.208 376.365 297.291 376.525C297.455 376.86 297.817 377.294 297.6 377.386L295.465 377.038L295.728 375.742Z" fill="#00695C"/>
<path d="M296.45 356.197C296.45 356.197 294.762 361.529 297.593 364.481L298.414 363.823C298.414 363.823 296.739 358.005 297.679 356.638C296.023 356.118 296.45 356.197 296.45 356.197Z" fill="#00695C"/>
<path d="M297.619 356.664C297.619 356.664 297.961 356.374 297.619 355.862C297.278 355.349 296.647 355.75 296.647 355.75C296.647 355.75 296.417 356.493 296.647 356.664C296.877 356.835 297.619 356.664 297.619 356.664Z" fill="#CA7070"/>
<path opacity="0.2" d="M297.16 376.499C297.077 376.339 297.053 376.155 297.094 375.979L295.728 375.756L297.225 376.005C297.185 376.181 297.208 376.365 297.291 376.525C297.455 376.86 297.817 377.294 297.6 377.386H297.508C297.652 377.228 297.317 376.821 297.16 376.499Z" fill="white"/>
<path d="M298.959 363.541H299.091C299.497 363.541 299.826 363.211 299.826 362.804V361.897C299.826 361.49 299.497 361.161 299.091 361.161H298.959C298.553 361.161 298.224 361.49 298.224 361.897V362.804C298.224 363.211 298.553 363.541 298.959 363.541Z" fill="#CA7070"/>
<path opacity="0.2" d="M298.296 364.172C298.296 364.172 296.641 358.426 297.541 357.012H297.672H297.711C296.772 358.38 298.447 364.198 298.447 364.198L297.626 364.855L297.554 364.776L298.296 364.172Z" fill="white"/>
<path d="M298.992 361.996C299.972 361.996 300.766 361.201 300.766 360.22C300.766 359.24 299.972 358.445 298.992 358.445C298.013 358.445 297.219 359.24 297.219 360.22C297.219 361.201 298.013 361.996 298.992 361.996Z" fill="#CA7070"/>
<path opacity="0.2" d="M299.623 362.738V361.963C299.629 361.906 299.629 361.849 299.623 361.792C299.97 361.614 300.249 361.327 300.417 360.975C300.584 360.623 300.632 360.225 300.551 359.843C300.47 359.462 300.266 359.117 299.97 358.864C299.674 358.61 299.303 358.46 298.914 358.439H299.012C299.41 358.438 299.796 358.572 300.109 358.818C300.422 359.064 300.643 359.408 300.737 359.795C300.831 360.181 300.793 360.589 300.628 360.951C300.462 361.313 300.18 361.609 299.827 361.792C299.833 361.849 299.833 361.906 299.827 361.963V362.738C299.827 362.951 299.742 363.155 299.592 363.306C299.442 363.456 299.238 363.54 299.025 363.54H298.927C299.121 363.515 299.298 363.419 299.427 363.271C299.555 363.124 299.625 362.934 299.623 362.738Z" fill="white"/>
<path d="M297.193 369.07C297.193 369.07 300.615 369.457 300.74 369.07C301.276 367.49 301.276 365.777 300.74 364.198C300.74 363.965 300.694 363.734 300.605 363.519C300.515 363.303 300.385 363.108 300.22 362.943C300.056 362.778 299.86 362.647 299.645 362.558C299.43 362.469 299.199 362.423 298.966 362.423C298.496 362.423 298.045 362.61 297.712 362.943C297.379 363.276 297.193 363.727 297.193 364.198V369.07Z" fill="#00695C"/>
<path d="M297.193 369.07L295.649 376.17H297.193L298.795 370.91C298.795 370.91 300.766 371.772 301.311 373.488C301.641 374.353 301.641 375.311 301.311 376.176H302.973V376.098C303.247 374.832 303.184 373.516 302.79 372.283C302.395 371.049 301.684 369.941 300.726 369.07" fill="#263238"/>
<path opacity="0.2" d="M300.51 369.07C301.046 367.49 301.046 365.777 300.51 364.198C300.509 363.747 300.337 363.313 300.028 362.985C299.719 362.656 299.297 362.458 298.848 362.429H298.959C299.43 362.429 299.881 362.616 300.213 362.949C300.546 363.282 300.733 363.734 300.733 364.205C301.269 365.784 301.269 367.497 300.733 369.076C300.687 369.214 300.22 369.254 299.636 369.247C300.142 369.234 300.51 369.188 300.51 369.07Z" fill="white"/>
<path d="M300.766 364.172C300.766 364.172 305.364 360.963 304.884 356.9H303.86C303.86 356.9 301.396 362.226 299.827 362.745C298.257 363.264 300.766 364.172 300.766 364.172Z" fill="#00695C"/>
<g opacity="0.2">
<path opacity="0.2" d="M298.762 371.022L297.193 376.196H296.963L298.565 370.937L298.762 371.022Z" fill="white"/>
<path opacity="0.2" d="M300.51 369.096H300.74C301.697 369.967 302.409 371.075 302.803 372.309C303.197 373.542 303.26 374.858 302.986 376.124V376.203H302.756V376.124C303.031 374.858 302.967 373.542 302.573 372.309C302.179 371.075 301.467 369.967 300.51 369.096Z" fill="white"/>
</g>
<path opacity="0.2" d="M304.713 356.94H304.884C305.344 361.009 300.766 364.211 300.766 364.211L300.654 364.165C301.166 363.79 305.14 360.746 304.713 356.94Z" fill="white"/>
<path d="M300.405 359.425C300.307 359.654 300.238 359.895 300.201 360.142C300.155 360.394 300.06 360.634 299.92 360.849C299.78 361.063 299.599 361.247 299.386 361.391C299.142 361.524 298.87 361.598 298.592 361.608C298.382 361.634 298.169 361.616 297.966 361.555C297.764 361.493 297.576 361.391 297.416 361.253C297.23 361.05 297.105 360.8 297.055 360.53C296.966 360.128 296.98 359.71 297.095 359.315C297.21 358.92 297.422 358.56 297.712 358.268C298.006 357.983 298.375 357.787 298.776 357.702C299.176 357.617 299.593 357.647 299.978 357.788C300.116 357.856 300.261 357.909 300.411 357.946C300.529 357.969 300.652 357.962 300.767 357.925C300.881 357.888 300.985 357.823 301.068 357.735C301.087 357.795 301.091 357.858 301.081 357.92C301.07 357.981 301.046 358.039 301.008 358.089C300.971 358.139 300.923 358.18 300.867 358.207C300.811 358.235 300.749 358.249 300.687 358.248C300.818 358.311 300.961 358.348 301.106 358.356C301.252 358.364 301.397 358.343 301.534 358.294C301.457 358.458 301.32 358.586 301.152 358.654C300.984 358.721 300.797 358.721 300.628 358.656C300.95 358.8 301.3 358.872 301.653 358.866C301.58 358.866 301.436 359.004 301.344 359.031C301.23 359.04 301.116 359.04 301.002 359.031C300.875 359.031 300.751 359.069 300.645 359.139C300.539 359.209 300.455 359.308 300.405 359.425Z" fill="#263238"/>
<g opacity="0.2">
<path opacity="0.2" d="M300.641 358.255C300.773 358.317 300.916 358.353 301.061 358.36C300.871 358.373 300.681 358.337 300.51 358.255C300.565 358.255 300.62 358.244 300.671 358.221C300.722 358.199 300.767 358.167 300.805 358.126C300.843 358.085 300.872 358.037 300.89 357.984C300.908 357.932 300.915 357.876 300.91 357.821L301.002 357.742C301.02 357.8 301.025 357.861 301.016 357.921C301.006 357.981 300.983 358.038 300.948 358.088C300.913 358.138 300.867 358.178 300.814 358.207C300.761 358.236 300.702 358.253 300.641 358.255Z" fill="white"/>
<path opacity="0.2" d="M300.286 357.946C300.136 357.909 299.991 357.856 299.853 357.788C299.643 357.705 299.421 357.658 299.196 357.65C299.467 357.641 299.738 357.688 299.991 357.788C300.129 357.856 300.274 357.909 300.424 357.946H300.483C300.418 357.956 300.351 357.956 300.286 357.946Z" fill="white"/>
<path opacity="0.2" d="M301.166 359.031C301.258 359.031 301.403 358.866 301.475 358.866C301.122 358.872 300.773 358.8 300.45 358.656C300.524 358.685 300.602 358.7 300.68 358.702C300.972 358.813 301.282 358.866 301.593 358.86C301.521 358.86 301.377 358.998 301.285 359.024C301.206 359.036 301.127 359.036 301.048 359.024L301.166 359.031Z" fill="white"/>
<path opacity="0.2" d="M298.473 361.608C298.752 361.598 299.024 361.524 299.268 361.391C299.48 361.247 299.662 361.063 299.802 360.849C299.941 360.634 300.037 360.394 300.083 360.142C300.12 359.895 300.188 359.654 300.286 359.425C300.338 359.319 300.417 359.229 300.515 359.165C300.613 359.1 300.727 359.063 300.845 359.057H300.956C300.839 359.063 300.725 359.1 300.627 359.165C300.529 359.229 300.45 359.319 300.398 359.425C300.3 359.654 300.232 359.895 300.194 360.142C300.149 360.394 300.053 360.634 299.913 360.849C299.773 361.063 299.592 361.247 299.38 361.391C299.135 361.524 298.863 361.598 298.585 361.608H298.473Z" fill="white"/>
<path opacity="0.2" d="M300.779 358.708C300.9 358.7 301.017 358.661 301.119 358.596C301.221 358.53 301.305 358.44 301.363 358.334L301.495 358.294C301.432 358.428 301.33 358.54 301.202 358.614C301.074 358.688 300.926 358.721 300.779 358.708Z" fill="white"/>
</g>
<path opacity="0.2" d="M304.773 356.894C304.773 356.894 305.114 356.605 304.773 356.092C304.728 356.017 304.665 355.954 304.591 355.908C304.517 355.863 304.433 355.835 304.346 355.829C304.451 355.817 304.558 355.835 304.653 355.882C304.749 355.928 304.829 356.001 304.884 356.092C305.226 356.605 304.884 356.894 304.884 356.894C304.668 356.941 304.448 356.966 304.227 356.966C304.411 356.957 304.593 356.933 304.773 356.894Z" fill="white"/>
<path d="M312.602 350.51C312.602 350.51 310.914 355.842 313.745 358.794L314.566 358.136C314.566 358.136 312.891 352.318 313.831 350.951C312.175 350.431 312.602 350.51 312.602 350.51Z" fill="#FF5252"/>
<path d="M313.772 350.984C313.772 350.984 314.113 350.694 313.772 350.182C313.43 349.669 312.799 350.07 312.799 350.07C312.799 350.07 312.57 350.813 312.799 350.984C313.029 351.155 313.772 350.984 313.772 350.984Z" fill="#F6B9AD"/>
<path d="M315.111 357.86H315.243C315.649 357.86 315.979 357.531 315.979 357.124V356.217C315.979 355.81 315.649 355.48 315.243 355.48H315.111C314.705 355.48 314.376 355.81 314.376 356.217V357.124C314.376 357.531 314.705 357.86 315.111 357.86Z" fill="#F6B9AD"/>
<path opacity="0.2" d="M314.448 358.511C314.448 358.511 312.793 352.765 313.693 351.352H313.824H313.864C312.924 352.719 314.599 358.537 314.599 358.537L313.778 359.195L313.706 359.116L314.448 358.511Z" fill="white"/>
<path d="M315.144 356.309C316.124 356.309 316.918 355.514 316.918 354.534C316.918 353.553 316.124 352.759 315.144 352.759C314.165 352.759 313.371 353.553 313.371 354.534C313.371 355.514 314.165 356.309 315.144 356.309Z" fill="#F6B9AD"/>
<path opacity="0.2" d="M315.775 357.052V356.282C315.781 356.226 315.781 356.168 315.775 356.112C316.122 355.934 316.401 355.647 316.569 355.295C316.736 354.943 316.783 354.545 316.703 354.163C316.622 353.782 316.418 353.437 316.122 353.183C315.826 352.929 315.455 352.78 315.065 352.759H315.164C315.562 352.758 315.948 352.892 316.261 353.138C316.574 353.383 316.795 353.727 316.889 354.114C316.983 354.501 316.945 354.909 316.779 355.271C316.614 355.633 316.332 355.929 315.978 356.112C315.985 356.168 315.985 356.226 315.978 356.282V357.058C315.978 357.271 315.894 357.475 315.744 357.625C315.593 357.776 315.39 357.86 315.177 357.86H315.079C315.274 357.835 315.452 357.738 315.581 357.589C315.709 357.44 315.778 357.248 315.775 357.052Z" fill="white"/>
<path d="M313.344 363.383C313.344 363.383 316.767 363.771 316.891 363.383C317.299 362.134 316.235 360.753 316.754 360.096C316.914 359.863 317.011 359.593 317.035 359.312C317.059 359.03 317.01 358.748 316.891 358.491C316.891 358.258 316.846 358.027 316.756 357.812C316.667 357.597 316.537 357.401 316.372 357.236C316.207 357.071 316.012 356.941 315.797 356.851C315.582 356.762 315.351 356.716 315.118 356.716C314.648 356.716 314.197 356.903 313.864 357.236C313.531 357.569 313.344 358.021 313.344 358.491V363.383Z" fill="#FF5252"/>
<path opacity="0.2" d="M316.76 360.122C316.92 359.89 317.018 359.619 317.042 359.338C317.066 359.057 317.016 358.774 316.898 358.518C316.898 358.047 316.711 357.595 316.379 357.263C316.046 356.93 315.595 356.743 315.125 356.743H315.013C315.463 356.771 315.884 356.97 316.193 357.298C316.502 357.627 316.674 358.06 316.675 358.511C316.793 358.767 316.843 359.05 316.818 359.332C316.794 359.613 316.697 359.883 316.537 360.115C315.985 360.773 317.082 362.127 316.675 363.402C316.635 363.521 316.281 363.567 315.814 363.573C316.392 363.573 316.859 363.541 316.905 363.402C317.305 362.134 316.208 360.779 316.76 360.122Z" fill="white"/>
<path d="M316.162 363.271C317.482 365.36 317.995 367.858 317.607 370.299V370.378H316.543C316.757 369.494 316.757 368.572 316.543 367.689C316.341 366.66 315.766 365.742 314.927 365.112L313.896 370.371H312.904L313.896 363.271H316.162Z" fill="#F6B9AD"/>
<path d="M322.186 353.055C322.186 353.055 322.6 352.884 322.422 352.285C322.245 351.687 321.529 351.891 321.529 351.891C321.529 351.891 321.089 352.548 321.26 352.765C321.43 352.982 322.186 353.055 322.186 353.055Z" fill="#F6B9AD"/>
<path d="M316.11 358.8C316.11 358.8 321.424 357.078 322.179 353.055L321.194 352.752C321.194 352.752 317.253 357.124 315.624 357.157C313.995 357.19 316.11 358.8 316.11 358.8Z" fill="#FF5252"/>
<path opacity="0.2" d="M321.995 353.061L322.159 353.114C321.404 357.137 316.09 358.86 316.09 358.86L315.998 358.787C316.622 358.564 321.292 356.815 321.995 353.061Z" fill="white"/>
<g opacity="0.2">
<path opacity="0.2" d="M314.685 365.105L313.653 370.365H313.883L314.882 365.25C314.818 365.198 314.753 365.15 314.685 365.105Z" fill="white"/>
<path opacity="0.2" d="M316.163 363.271H315.933C317.252 365.36 317.766 367.858 317.378 370.299V370.378H317.588V370.299C317.982 367.861 317.475 365.363 316.163 363.271Z" fill="white"/>
</g>
<path opacity="0.2" d="M322.067 352.995C322.067 352.995 322.481 352.824 322.304 352.226C322.283 352.142 322.242 352.064 322.185 351.999C322.128 351.934 322.056 351.883 321.975 351.851C322.08 351.87 322.177 351.919 322.255 351.991C322.333 352.063 322.389 352.156 322.416 352.259C322.593 352.851 322.179 353.028 322.179 353.028C321.956 353.01 321.736 352.968 321.522 352.903C321.701 352.949 321.883 352.98 322.067 352.995Z" fill="white"/>
<path d="M313.344 363.192L311.19 367.742C312.449 367.804 313.703 367.955 314.941 368.195C317.325 368.649 318.461 367.538 318.461 367.538L316.931 363.192H313.344Z" fill="#263238"/>
<path d="M313.916 370.352C313.916 370.352 315.052 370.582 314.822 371.009H312.78L312.891 370.352H313.916Z" fill="#FF5252"/>
<path d="M317.548 370.352C317.548 370.352 318.685 370.582 318.455 371.009H316.412L316.524 370.352H317.548Z" fill="#FF5252"/>
<path d="M316.754 353.074C316.754 353.074 314.028 356.94 315.276 358.531L310.395 358.419C310.395 358.419 311.755 349.662 316.754 353.074Z" fill="#FCCC63"/>
<path opacity="0.2" d="M316.754 353.074C316.194 352.66 315.539 352.393 314.849 352.298C315.318 352.449 315.761 352.671 316.162 352.956C316.162 352.956 313.436 356.822 314.684 358.413L310.389 358.314V358.413L315.269 358.524C314.028 356.94 316.754 353.074 316.754 353.074Z" fill="white"/>
<path opacity="0.2" d="M316.931 363.192H316.589L318.127 367.511C317.491 368.034 316.69 368.314 315.867 368.3C316.812 368.393 317.756 368.11 318.494 367.511L316.931 363.192Z" fill="white"/>
<path opacity="0.2" d="M313.916 370.352H313.686C313.686 370.352 314.822 370.582 314.593 371.009H314.822C315.052 370.575 313.916 370.352 313.916 370.352Z" fill="white"/>
<path opacity="0.2" d="M317.548 370.352H317.318C317.318 370.352 318.455 370.582 318.225 371.009H318.455C318.685 370.575 317.548 370.352 317.548 370.352Z" fill="white"/>
<path d="M476.559 263.584L470.227 228.188L490.281 227.209V263.584H504.002L517.724 224.494" stroke="#B3B3B3" stroke-miterlimit="10"/>
<path d="M499.792 259.883H480.769C470.866 259.883 462.837 267.919 462.837 277.831V281.026C462.837 290.939 470.866 298.974 480.769 298.974H499.792C509.695 298.974 517.724 290.939 517.724 281.026V277.831C517.724 267.919 509.695 259.883 499.792 259.883Z" fill="#FF8870"/>
<path opacity="0.05" d="M498.728 259.883H482.898C477.723 259.899 472.765 261.963 469.106 265.625C465.447 269.287 463.385 274.25 463.369 279.429C463.369 279.876 463.369 280.31 463.422 280.743C463.77 275.806 465.971 271.183 469.584 267.803C473.196 264.423 477.952 262.535 482.898 262.519H498.728C503.673 262.535 508.429 264.423 512.042 267.803C515.654 271.183 517.855 275.806 518.203 280.743C518.203 280.31 518.256 279.869 518.256 279.429C518.24 274.25 516.178 269.287 512.519 265.625C508.86 261.963 503.902 259.899 498.728 259.883Z" fill="black"/>
<path d="M502.925 271.526L497.742 267.457L485.21 283.347L478.47 278.12L474.253 283.485L484.054 290.98L486.484 292.932L502.925 271.526Z" fill="url(#paint4_linear_3_76)"/>
<path d="M502.544 271.428L497.841 267.825L485.394 284.077L478.477 278.765L474.871 283.472L484.139 290.572L486.517 292.354L502.544 271.428Z" fill="#69F0AE"/>
<path d="M573.543 154.096C573.543 199.235 535.866 235.828 495.752 235.828C455.638 235.828 414.526 199.235 414.526 154.096C414.526 108.956 455.638 72.3636 495.759 72.3636C535.879 72.3636 573.543 108.956 573.543 154.096Z" fill="url(#paint5_linear_3_76)"/>
<path d="M569.819 154.096C569.819 197.125 533.909 232.001 495.667 232.001C457.425 232.001 418.237 197.125 418.237 154.096C418.237 111.067 457.438 76.2162 495.673 76.2162C533.909 76.2162 569.819 111.06 569.819 154.096Z" fill="#FF8870"/>
<path d="M500.994 234.736H483.791V240.752H500.994V234.736Z" fill="#FF8870"/>
<g opacity="0.2">
<path opacity="0.2" d="M495.673 75.9203C494.76 75.9203 493.854 75.9203 492.941 75.9861C530.138 77.5968 564.36 111.823 564.36 153.826C564.36 195.829 530.138 230.055 492.967 231.666C493.88 231.706 494.793 231.732 495.7 231.732C533.935 231.732 569.852 196.855 569.852 153.826C569.852 110.797 533.909 75.9203 495.673 75.9203Z" fill="black"/>
</g>
<g opacity="0.2">
<path opacity="0.2" d="M422.618 154.096C422.618 111.685 460.716 77.176 498.406 76.2162C497.861 76.2162 497.315 76.2162 496.77 76.2162C458.535 76.2162 419.341 111.093 419.341 154.122C419.341 197.151 458.528 232.028 496.764 232.028C497.309 232.028 497.854 232.028 498.399 232.028C460.696 231.002 422.618 196.526 422.618 154.096Z" fill="white"/>
</g>
<path d="M517.934 221.068H468.5V237.195H517.934V221.068Z" fill="#FF8870"/>
<path opacity="0.2" d="M468.5 81.8635C468.5 81.8635 409.784 149.04 468.5 226.328L487.89 226.262C487.89 226.262 434.363 162.412 485.433 77.0248L475.889 79.2009L468.5 81.8635Z" fill="white"/>
<path opacity="0.2" d="M519.57 80.8182C519.57 80.8182 578.286 149.02 519.57 226.308L500.179 226.242C500.179 226.242 553.706 161.814 502.636 76.4463L512.193 78.3594L519.57 80.8182Z" fill="white"/>
</g>
<defs>
<linearGradient id="paint0_linear_3_76" x1="290" y1="466.416" x2="290" y2="352.64" gradientUnits="userSpaceOnUse">
<stop stop-color="#808080" stop-opacity="0.25"/>
<stop offset="0.54" stop-color="#808080" stop-opacity="0.12"/>
<stop offset="1" stop-color="#808080" stop-opacity="0.1"/>
</linearGradient>
<linearGradient id="paint1_linear_3_76" x1="21320.1" y1="17317.6" x2="21320.1" y2="0" gradientUnits="userSpaceOnUse">
<stop stop-color="#808080" stop-opacity="0.25"/>
<stop offset="0.54" stop-color="#808080" stop-opacity="0.12"/>
<stop offset="1" stop-color="#808080" stop-opacity="0.1"/>
</linearGradient>
<linearGradient id="paint2_linear_3_76" x1="1692.99" y1="361.422" x2="1692.99" y2="361.421" gradientUnits="userSpaceOnUse">
<stop stop-color="#808080" stop-opacity="0.25"/>
<stop offset="0.54" stop-color="#808080" stop-opacity="0.12"/>
<stop offset="1" stop-color="#808080" stop-opacity="0.1"/>
</linearGradient>
<linearGradient id="paint3_linear_3_76" x1="-22822.4" y1="13384" x2="-22822.4" y2="12798.1" gradientUnits="userSpaceOnUse">
<stop stop-color="#808080" stop-opacity="0.25"/>
<stop offset="0.54" stop-color="#808080" stop-opacity="0.12"/>
<stop offset="1" stop-color="#808080" stop-opacity="0.1"/>
</linearGradient>
<linearGradient id="paint4_linear_3_76" x1="488.537" y1="292.963" x2="488.594" y2="267.461" gradientUnits="userSpaceOnUse">
<stop stop-opacity="0.12"/>
<stop offset="0.55" stop-opacity="0.09"/>
<stop offset="1" stop-opacity="0.02"/>
</linearGradient>
<linearGradient id="paint5_linear_3_76" x1="145220" y1="74085.6" x2="145220" y2="33441.9" gradientUnits="userSpaceOnUse">
<stop stop-color="#808080" stop-opacity="0.25"/>
<stop offset="0.54" stop-color="#808080" stop-opacity="0.12"/>
<stop offset="1" stop-color="#808080" stop-opacity="0.1"/>
</linearGradient>
<clipPath id="clip0_3_76">
<rect width="580" height="468" fill="white"/>
</clipPath>
</defs>
</svg>
